<mxfile host="app.diagrams.net" modified="2023-07-03T06:48:27.108Z" agent="Mozilla/5.0 (Macintosh; Intel Mac OS X 10_15_7) AppleWebKit/537.36 (KHTML, like Gecko) Chrome/114.0.0.0 Safari/537.36" etag="RYPpm3OxHw0DHEt1Dl5J" version="21.5.1" type="github">
  <diagram name="第 1 页" id="GhASuWuZi42JvSnn__Yv">
    <mxGraphModel dx="954" dy="458" grid="1" gridSize="10" guides="1" tooltips="1" connect="1" arrows="1" fold="1" page="1" pageScale="1" pageWidth="827" pageHeight="1169" math="0" shadow="0">
      <root>
        <mxCell id="0" />
        <mxCell id="1" parent="0" />
        <mxCell id="wq72LBG8KCP3KCf_MoC9-1" value="任务调度系统" style="rounded=0;whiteSpace=wrap;html=1;" parent="1" vertex="1">
          <mxGeometry x="310" y="100" width="104" height="40" as="geometry" />
        </mxCell>
        <mxCell id="wq72LBG8KCP3KCf_MoC9-6" value="任&lt;br&gt;务&lt;br&gt;管&lt;br&gt;理&lt;br&gt;模&lt;br&gt;块" style="rounded=0;whiteSpace=wrap;html=1;" parent="1" vertex="1">
          <mxGeometry x="50" y="270" width="60" height="170" as="geometry" />
        </mxCell>
        <mxCell id="wq72LBG8KCP3KCf_MoC9-7" value="" style="endArrow=classic;html=1;rounded=0;entryX=0.5;entryY=0;entryDx=0;entryDy=0;exitX=0.483;exitY=0.989;exitDx=0;exitDy=0;exitPerimeter=0;" parent="1" source="wq72LBG8KCP3KCf_MoC9-1" target="wq72LBG8KCP3KCf_MoC9-6" edge="1">
          <mxGeometry width="50" height="50" relative="1" as="geometry">
            <mxPoint x="362" y="140" as="sourcePoint" />
            <mxPoint x="360" y="190" as="targetPoint" />
            <Array as="points">
              <mxPoint x="360" y="200" />
              <mxPoint x="80" y="200" />
            </Array>
          </mxGeometry>
        </mxCell>
        <mxCell id="wq72LBG8KCP3KCf_MoC9-8" value="调&lt;br&gt;度&lt;br&gt;模&lt;br&gt;块" style="rounded=0;whiteSpace=wrap;html=1;" parent="1" vertex="1">
          <mxGeometry x="160" y="270" width="60" height="170" as="geometry" />
        </mxCell>
        <mxCell id="wq72LBG8KCP3KCf_MoC9-9" value="执&lt;br&gt;行&lt;br&gt;模&lt;br&gt;块" style="rounded=0;whiteSpace=wrap;html=1;" parent="1" vertex="1">
          <mxGeometry x="270" y="270" width="60" height="170" as="geometry" />
        </mxCell>
        <mxCell id="wq72LBG8KCP3KCf_MoC9-11" value="日&lt;br&gt;志&lt;br&gt;模&lt;br&gt;块" style="rounded=0;whiteSpace=wrap;html=1;" parent="1" vertex="1">
          <mxGeometry x="380" y="270" width="60" height="170" as="geometry" />
        </mxCell>
        <mxCell id="wq72LBG8KCP3KCf_MoC9-12" value="主&lt;br&gt;机&lt;br&gt;模&lt;br&gt;块" style="rounded=0;whiteSpace=wrap;html=1;" parent="1" vertex="1">
          <mxGeometry x="490" y="270" width="60" height="170" as="geometry" />
        </mxCell>
        <mxCell id="wq72LBG8KCP3KCf_MoC9-13" value="告&lt;br&gt;警&lt;br&gt;监&lt;br&gt;测&lt;br&gt;模&lt;br&gt;块" style="rounded=0;whiteSpace=wrap;html=1;" parent="1" vertex="1">
          <mxGeometry x="600" y="270" width="60" height="170" as="geometry" />
        </mxCell>
        <mxCell id="wq72LBG8KCP3KCf_MoC9-15" value="" style="endArrow=classic;html=1;rounded=0;entryX=0.5;entryY=0;entryDx=0;entryDy=0;" parent="1" target="wq72LBG8KCP3KCf_MoC9-8" edge="1">
          <mxGeometry width="50" height="50" relative="1" as="geometry">
            <mxPoint x="190" y="200" as="sourcePoint" />
            <mxPoint x="440" y="190" as="targetPoint" />
          </mxGeometry>
        </mxCell>
        <mxCell id="wq72LBG8KCP3KCf_MoC9-16" value="" style="endArrow=classic;html=1;rounded=0;entryX=0.5;entryY=0;entryDx=0;entryDy=0;" parent="1" target="wq72LBG8KCP3KCf_MoC9-9" edge="1">
          <mxGeometry width="50" height="50" relative="1" as="geometry">
            <mxPoint x="300" y="200" as="sourcePoint" />
            <mxPoint x="330" y="230" as="targetPoint" />
          </mxGeometry>
        </mxCell>
        <mxCell id="wq72LBG8KCP3KCf_MoC9-17" value="" style="endArrow=classic;html=1;rounded=0;entryX=0.5;entryY=0;entryDx=0;entryDy=0;" parent="1" target="wq72LBG8KCP3KCf_MoC9-13" edge="1">
          <mxGeometry width="50" height="50" relative="1" as="geometry">
            <mxPoint x="360" y="200" as="sourcePoint" />
            <mxPoint x="540" y="150" as="targetPoint" />
            <Array as="points">
              <mxPoint x="630" y="200" />
            </Array>
          </mxGeometry>
        </mxCell>
        <mxCell id="wq72LBG8KCP3KCf_MoC9-18" value="" style="endArrow=classic;html=1;rounded=0;entryX=0.5;entryY=0;entryDx=0;entryDy=0;" parent="1" target="wq72LBG8KCP3KCf_MoC9-11" edge="1">
          <mxGeometry width="50" height="50" relative="1" as="geometry">
            <mxPoint x="410" y="200" as="sourcePoint" />
            <mxPoint x="490" y="130" as="targetPoint" />
          </mxGeometry>
        </mxCell>
        <mxCell id="wq72LBG8KCP3KCf_MoC9-19" value="" style="endArrow=classic;html=1;rounded=0;entryX=0.5;entryY=0;entryDx=0;entryDy=0;" parent="1" target="wq72LBG8KCP3KCf_MoC9-12" edge="1">
          <mxGeometry width="50" height="50" relative="1" as="geometry">
            <mxPoint x="520" y="200" as="sourcePoint" />
            <mxPoint x="610" y="70" as="targetPoint" />
          </mxGeometry>
        </mxCell>
      </root>
    </mxGraphModel>
  </diagram>
</mxfile>
